<svg width="33" height="39" viewBox="0 0 33 39" fill="none" xmlns="http://www.w3.org/2000/svg">
<path d="M13.4036 28.2328V3.06878C13.4036 2.19929 13.6848 1.47097 14.2474 0.88381C14.8099 0.296649 15.5052 0.00204586 16.3333 0C17.1634 0 17.8597 0.294603 18.4222 0.88381C18.9848 1.47302 19.265 2.20134 19.2631 3.06878V28.2328L27.7593 19.3333C28.2965 18.7707 28.9801 18.4894 29.8102 18.4894C30.6403 18.4894 31.3239 18.7707 31.861 19.3333C32.3981 19.8959 32.6667 20.612 32.6667 21.4815C32.6667 22.351 32.3981 23.067 31.861 23.6296L18.3842 37.746C17.7982 38.3598 17.1146 38.6667 16.3333 38.6667C15.5521 38.6667 14.8685 38.3598 14.2825 37.746L0.805679 23.6296C0.268559 23.067 0 22.351 0 21.4815C0 20.612 0.268559 19.8959 0.805679 19.3333C1.3428 18.7707 2.02641 18.4894 2.8565 18.4894C3.6866 18.4894 4.3702 18.7707 4.90732 19.3333L13.4036 28.2328Z" fill="white"/>
</svg>
